# xmcd
#
# Track frame offsets:
#	150
#	17333
#	35728
#	53531
#	70653
#	83740
#	97740
#	114249
#	130031
#	146188
#	161710
#	177500
#	190474
#	217266
#	234360
#	250684
#	267325
#	283775
#	297885
#
# Disc length: 4201 seconds
#
# Revision: 1
# Processed by: cddbd v1.4PL0 Copyright (c) Steve Scherf et al.
# Submitted via: audiograbber 1.82.02
#
DISCID=10106713
DTITLE=Various Artist - Hott Country  093
DYEAR=2003
DGENRE=Country
TTITLE0=Shania Twain - She's Not Just A Pretty Face
TTITLE1=Kenny Chesney - There Goes My Life
TTITLE2=Jimmy Rankin - Morning Bound Train
TTITLE3=Aaron Pritchett - New Frontier
TTITLE4=Joe Nichols - Cool To Be A Fool
TTITLE5=J.R. Vautour - Addicted
TTITLE6=Billy Curlington - Walk A Little Straighter
TTITLE7=Dierks Bentley - My Last Name
TTITLE8=Brian McComas - You're In My Head
TTITLE9=Damian Marshall - Don't Say Anything At All
TTITLE10=Buddy Jewel - Sweet Southern Comfort
TTITLE11=Emerson Drive - Waitin' On Me
TTITLE12=Dixie Chicks - Top Of The World
TTITLE13=Rebecca Lynn Howard - I Need A Vacation
TTITLE14=Billy Dean - I'm In Love With You
TTITLE15=Kellie Coffey - Texas Plates
TTITLE16=Jason Blaine - That's What I Do
TTITLE17=Sawyer Brown - I'll Be Around
TTITLE18=James Otto - Days Of Our Lives
EXTD=
EXTT0=
EXTT1=
EXTT2=
EXTT3=
EXTT4=
EXTT5=
EXTT6=
EXTT7=
EXTT8=
EXTT9=
EXTT10=
EXTT11=
EXTT12=
EXTT13=
EXTT14=
EXTT15=
EXTT16=
EXTT17=
EXTT18=
PLAYORDER=
